# xmcd
#
# Track frame offsets: 
#        150
#        12782
#        33333
#        47583
#        63544
#        77787
#        93198
#        114719
#        129402
#        145204
#        160870
#        173144
#
# Disc length: 2545 seconds
#
# Revision: 0
# Processed by: cddbd v1.5.2PL0 Copyright (c) Steve Scherf et al.
# Submitted via: ExactAudioCopy v1.0b1
#
DISCID=9509ef0c
DTITLE=Toby Keith - American Ride
DYEAR=2009
DGENRE=Country
TTITLE0=American Ride
TTITLE1=Gypsy Driftin'
TTITLE2=Are You Feelin' Me
TTITLE3=Every Dog Has Its Day
TTITLE4=Woke Up On My Own
TTITLE5=If You're Tryin' You Ain't
TTITLE6=Cryin' For Me (Wayman's Song) (Featuring Dave Koz, Marcus Mill
TTITLE6=er And Arthur Thompson)
TTITLE7=If I Had One
TTITLE8=You Can't Read My Mind
TTITLE9=Tender As I Wanna Be
TTITLE10=Loaded
TTITLE11=Ballad of Balad (Featuring The Hogliners)
EXTD=
EXTT0=
EXTT1=
EXTT2=
EXTT3=
EXTT4=
EXTT5=
EXTT6=
EXTT7=
EXTT8=
EXTT9=
EXTT10=
EXTT11=
PLAYORDER=
